<svg width="72" height="54" viewBox="0 0 72 54" fill="none" xmlns="http://www.w3.org/2000/svg">
<path d="M71 24.4286C71 38.9999 60.8833 53 46.7143 53C32.2741 53 19 41.2819 19 27C19 12.5979 29.8252 1 44.1429 1C58.6824 1 71 10.2335 71 24.4286Z" stroke="white" stroke-width="2"/>
<path d="M55.7071 26.7071C56.0976 26.3166 56.0976 25.6834 55.7071 25.2929L49.3431 18.9289C48.9526 18.5384 48.3195 18.5384 47.9289 18.9289C47.5384 19.3195 47.5384 19.9526 47.9289 20.3432L53.5858 26L47.9289 31.6569C47.5384 32.0474 47.5384 32.6805 47.9289 33.0711C48.3195 33.4616 48.9526 33.4616 49.3431 33.0711L55.7071 26.7071ZM-8.74228e-08 27L55 27L55 25L8.74228e-08 25L-8.74228e-08 27Z" fill="white"/>
</svg>
