<svg width="241" height="72" viewBox="0 0 241 72" fill="none" xmlns="http://www.w3.org/2000/svg">
<path d="M128.5 4.99992L182 4.99992L188.663 4.99992C192.869 4.99992 197.055 5.56408 201.11 6.67731L220.482 11.995C234.616 15.875 242.99 30.4143 239.252 44.5871C236.157 56.3227 225.543 64.4999 213.406 64.4999L200 64.4999L145.5 64.4999L88.5 71.4999L34.5381 71.4999C32.1858 71.4999 29.84 71.2539 27.539 70.7658L23.7153 69.9547C9.07632 66.8494 -0.885607 53.2321 0.587233 38.3401C1.74692 26.6145 9.80339 16.7176 21.0499 13.2031L51.5133 3.68332C61.4042 0.592438 71.814 -0.485748 82.1284 0.512405L128.5 4.99992Z" fill="white"/>
</svg>
