<svg width="36" height="54" viewBox="0 0 36 54" fill="none" xmlns="http://www.w3.org/2000/svg">
<path d="M31.0406 43.0993H5.90893C3.17445 43.0993 0.950684 41.2244 0.950684 38.9188C0.950684 38.8971 0.951399 38.876 0.95283 38.8543L2.38122 16.4877C2.40411 14.199 4.61858 12.3428 7.33946 12.3428H29.6101C32.331 12.3428 34.5447 14.199 34.569 16.4877L35.9974 38.8543C35.9989 38.876 35.9996 38.8971 35.9996 38.9188C35.9989 41.2244 33.7744 43.0993 31.0406 43.0993ZM3.81176 38.9472C3.82892 39.9091 4.76378 40.687 5.90893 40.687H31.0406C32.1865 40.687 33.1192 39.9091 33.1385 38.9472L31.7101 16.5878C31.7087 16.5661 31.708 16.545 31.708 16.5233C31.708 15.5487 30.7674 14.7551 29.6101 14.7551H7.33946C6.18359 14.7551 5.2423 15.5481 5.2423 16.5233C5.2423 16.545 5.24158 16.5661 5.24015 16.5878L3.81176 38.9472Z" fill="white"/>
<path d="M24.8264 14.4895C24.0368 14.4895 23.3959 13.8486 23.3959 13.059V5.2461C23.3959 4.26046 22.4575 3.76049 21.1457 3.76049H16.0408C15.5208 3.76049 14.0974 3.86706 14.0974 5.2461V13.059C14.0974 13.8486 13.4565 14.4895 12.6669 14.4895C11.8772 14.4895 11.2363 13.8486 11.2363 13.059V5.2461C11.2363 2.68687 13.0517 0.899414 16.0415 0.899414H21.1457C24.0411 0.899414 26.257 2.6461 26.257 5.2461V13.059C26.257 13.8486 25.6161 14.4895 24.8264 14.4895Z" fill="white"/>
<circle cx="10" cy="10" r="10" transform="matrix(-1 0 0 1 29 34)" fill="#393531"/>
<path d="M20.8938 43.7145L17.6268 40.1181C17.4835 39.9606 17.2512 39.9606 17.1075 40.1181C16.9642 40.2756 16.9642 40.5313 17.1075 40.6888L20.1153 43.9998L17.1079 47.3108C16.9645 47.4683 16.9645 47.724 17.1079 47.8819C17.2512 48.0394 17.4838 48.0394 17.6272 47.8819L20.8942 44.2855C21.0353 44.1297 21.0353 43.8699 20.8938 43.7145Z" fill="white" stroke="white"/>
</svg>
