<svg width="44" height="96" viewBox="0 0 44 96" fill="none" xmlns="http://www.w3.org/2000/svg">
<path d="M14.3 32.1C14.6333 32 15.0833 31.9667 15.65 32C16.2167 32.0333 16.6167 32.1333 16.85 32.3C17.5167 32.7667 17.6833 33.5833 17.35 34.75C17.1833 35.2167 16.9833 35.55 16.75 35.75C16.5167 35.9167 15.7333 36.25 14.4 36.75C13.2667 37.2167 12.3167 37.6667 11.55 38.1C10.65 38.5667 9.61667 39.2 8.45 40C7.31667 40.8 6.7 41.2833 6.6 41.45C6.53333 41.6167 6.3 41.7 5.9 41.7C5.13333 41.7 4.41667 41.5 3.75 41.1C3.08333 40.7333 2.81667 40.35 2.95 39.95C3.05 39.6833 3 39.3833 2.8 39.05C2.63333 38.6833 2.68333 38.3833 2.95 38.15C3.28333 37.9167 4.46667 37.2 6.5 36C8.53333 34.7667 9.76667 34.0667 10.2 33.9C12.3 32.9333 13.6667 32.3333 14.3 32.1ZM27.2 27.15C28.2333 26.95 30 26.85 32.5 26.85H36.3L37.7 27.6C38.5 28.0667 39.0167 28.4333 39.25 28.7C39.4833 28.9667 39.6167 29.3333 39.65 29.8C39.65 30.1667 39.5667 30.5333 39.4 30.9C39.2333 31.2333 38.8833 31.7833 38.35 32.55C37.8167 33.25 37.2833 34.1 36.75 35.1L35.95 36.65L36.45 37C36.75 37.2667 37.05 37.4 37.35 37.4C37.7167 37.4 38.05 37.6167 38.35 38.05C38.65 38.4833 38.8 38.95 38.8 39.45C38.8 39.8833 38.75 40.1667 38.65 40.3C38.5833 40.4333 38.4167 40.55 38.15 40.65C37.4833 40.9167 36.5167 40.7667 35.25 40.2C34.7167 40 33.8167 39.9 32.55 39.9C31.3167 39.9 30.1667 40.0167 29.1 40.25L27.95 40.45L27.85 42C27.7833 43.0333 27.7 43.6333 27.6 43.8C27.4667 44.1333 27.1667 44.2333 26.7 44.1C26.2333 43.9667 25.9 43.6833 25.7 43.25C25.4333 42.6167 25.1333 42.1 24.8 41.7C24.5 41.3333 24 39.5667 23.3 36.4C22.6333 33.2333 22.3 31.1667 22.3 30.2C22.3 29.7667 22.3333 29.4833 22.4 29.35C22.5 29.1833 22.6667 29.0167 22.9 28.85C24.5667 27.95 26 27.3833 27.2 27.15ZM33.2 29.75C32.4 29.6167 31.2333 29.6167 29.7 29.75C28.1667 29.85 27.05 30.0167 26.35 30.25C25.8167 30.4167 25.4833 30.6167 25.35 30.85C25.25 31.05 25.25 31.4 25.35 31.9L26 34.85C26.3 36.3167 26.55 37.15 26.75 37.35C26.9833 37.6167 27.5167 37.6333 28.35 37.4C29.1833 37.1333 29.95 36.7167 30.65 36.15C31.55 35.45 32.3333 34.5333 33 33.4C33.6667 32.2667 34 31.3 34 30.5C34 30.2333 33.95 30.0667 33.85 30C33.75 29.9 33.5333 29.8167 33.2 29.75ZM11.05 4.15C11.4833 3.68333 11.7833 3.41667 11.95 3.35C12.1167 3.25 12.35 3.23333 12.65 3.3C13.05 3.36666 13.45 3.55 13.85 3.85C14.2833 4.15 14.5333 4.36666 14.6 4.5C14.6 4.86666 14.5 5.2 14.3 5.5C14.1 5.76666 13.5833 6.3 12.75 7.1C11.6167 8.23333 11.05 8.91667 11.05 9.15C11.05 9.35 10.9833 9.45 10.85 9.45C10.75 9.45 10.3167 9.96667 9.55 11L7.75 13.4C7.21667 14.0667 7.11667 14.4 7.45 14.4C7.55 14.4 7.73333 14.3667 8 14.3C8.4 14.1333 9.03333 14.1 9.9 14.2C10.7667 14.2667 11.35 14.3833 11.65 14.55C11.95 14.75 12.2667 14.7 12.6 14.4C12.9333 14.1 13.9167 12.85 15.55 10.65C17.85 7.51666 19.2333 5.95 19.7 5.95C20 5.95 20.3667 6.2 20.8 6.7C21.2667 7.16667 21.5 7.68333 21.5 8.25C21.5 8.68333 21.4167 9.03333 21.25 9.3C21.0833 9.53333 20.7 10 20.1 10.7C19.1333 11.7 18.35 12.6333 17.75 13.5C17.3167 14.1333 16.6333 15.0333 15.7 16.2C14.8 17.3333 14.2667 17.9833 14.1 18.15C13.9333 18.2167 13.5333 18.7 12.9 19.6C12.2667 20.5 11.95 20.9833 11.95 21.05C11.95 21.15 11.65 21.6 11.05 22.4C10.45 23.2 10.1833 23.6333 10.25 23.7C10.3167 23.7333 10.9167 23.55 12.05 23.15C12.9167 22.8833 13.6 22.75 14.1 22.75C14.6 22.75 15.1667 22.8667 15.8 23.1C16.8333 23.5 17.2833 24.8 17.15 27C17.15 27.3333 16.9 27.7167 16.4 28.15C15.9333 28.5833 15.4 28.8667 14.8 29C14.1 29.2 12.9 29.6833 11.2 30.45C9.13333 31.2833 7.81667 31.7833 7.25 31.95C6.68333 32.1167 6.23333 32.1 5.9 31.9C5.6 31.6667 5.45 31.4833 5.45 31.35C5.45 31.2167 5.25 30.75 4.85 29.95C4.48333 29.15 4.33333 28.6333 4.4 28.4C4.5 28.1667 4.43333 27.8667 4.2 27.5C3.83333 26.9 3.9 26.3333 4.4 25.8C4.6 25.6 4.83333 25.3167 5.1 24.95C5.36667 24.5833 5.6 24.3 5.8 24.1C6 23.8667 6.1 23.7 6.1 23.6C6.1 23.5 6.41667 23.05 7.05 22.25C8.25 20.65 8.7 19.85 8.4 19.85C8.2 19.85 7.68333 20.05 6.85 20.45C6.05 20.8167 5.38333 21.2 4.85 21.6C4.28333 22 3.81667 22.1833 3.45 22.15C3.11667 22.0833 2.65 21.7833 2.05 21.25C1.61667 20.8167 1.28333 20.3 1.05 19.7C0.85 19.1 0.866667 18.6833 1.1 18.45C1.26667 18.25 1.25 18.0333 1.05 17.8C0.916667 17.6 0.916667 17.3167 1.05 16.95C1.18333 16.5833 1.36667 16.4 1.6 16.4C1.86667 16.4 2.68333 15.5667 4.05 13.9C5.41667 12.2 6.68333 10.45 7.85 8.65C9.41667 6.35 10.4833 4.85 11.05 4.15ZM29.1 0.549998C29.6667 0.416665 30.4667 0.633332 31.5 1.2C32.3 1.6 32.7667 2.15 32.9 2.85C33.0333 3.51666 32.9833 5.05 32.75 7.45C32.5167 9.38333 32.4833 10.4333 32.65 10.6C32.85 10.7667 33.9 10.6667 35.8 10.3C37.7333 9.9 38.9333 9.75 39.4 9.85C39.8 9.95 40.4833 10.3833 41.45 11.15C42.4167 11.9167 42.9333 12.45 43 12.75C43.1333 13.0167 43.0833 13.4167 42.85 13.95C42.65 14.25 42.4833 14.45 42.35 14.55C42.2167 14.65 41.9167 14.7 41.45 14.7C40.25 14.7333 38.6 14.7167 36.5 14.65C34.8667 14.55 33.7833 14.5333 33.25 14.6C32.75 14.6667 32.4333 14.8667 32.3 15.2C32.2 15.5 32.1167 16.1833 32.05 17.25L31.95 18.9H34C35.4 18.9 36.35 19 36.85 19.2C37.65 19.4333 38.1667 19.9167 38.4 20.65C38.6667 21.35 38.5667 22 38.1 22.6C37.8333 22.9 37.4667 23.0667 37 23.1C36.5667 23.1333 35.35 23.1 33.35 23C31.65 22.8667 30.1833 22.8833 28.95 23.05C28.05 23.2167 26.9833 23.4833 25.75 23.85C24.5167 24.1833 23.8333 24.45 23.7 24.65C23.6 24.85 23.2667 24.9167 22.7 24.85C22.1667 24.75 21.6833 24.55 21.25 24.25C20.2167 23.5167 19.95 22.6333 20.45 21.6C20.5833 21.2333 20.8333 20.9667 21.2 20.8C21.5667 20.6333 22.2333 20.4833 23.2 20.35C23.9667 20.2833 24.7167 20.1167 25.45 19.85C25.9167 19.6833 26.2167 19.55 26.35 19.45C26.4833 19.3167 26.55 19.1167 26.55 18.85C26.55 18.4167 26.6167 17.7167 26.75 16.75L26.9 15.3L26 15.4C25.3667 15.5 24.4167 15.7 23.15 16C21.9167 16.3 21.1333 16.5 20.8 16.6C20 16.9333 19.2 16.6333 18.4 15.7C18.0667 15.3333 17.8667 14.9333 17.8 14.5C17.7333 14.0667 17.8167 13.8 18.05 13.7C18.3167 13.5 19.6667 13.1167 22.1 12.55C24.5667 11.95 26.0333 11.65 26.5 11.65C26.9 11.65 27.1167 11.55 27.15 11.35C27.2167 11.15 27.3333 10.15 27.5 8.35C27.9 3.61667 28.2 1.11666 28.4 0.849997C28.5333 0.683331 28.7667 0.583331 29.1 0.549998ZM26.05 81.7C26.05 81.3667 26.0833 81.1833 26.15 81.15C26.25 81.0833 26.5667 81.05 27.1 81.05C27.7667 81.05 28.3833 81.1167 28.95 81.25L31.85 82C34.2167 82.5333 35.7333 83.3667 36.4 84.5C36.7333 85.1333 37 85.55 37.2 85.75C37.4333 86.0167 37.5667 86.4167 37.6 86.95C37.6333 87.45 37.55 87.7833 37.35 87.95C37.15 88.15 37.05 88.3167 37.05 88.45C37.05 88.7833 36.3833 89.1333 35.05 89.5C34.35 89.7 33.7833 89.7 33.35 89.5C32.95 89.3 32.75 89.15 32.75 89.05C32.75 88.9167 32.5833 88.8167 32.25 88.75C31.9167 88.65 31.3667 88.1167 30.6 87.15C29.8333 86.15 28.8833 85.1 27.75 84C27.0167 83.3 26.55 82.8167 26.35 82.55C26.15 82.2833 26.05 82 26.05 81.7ZM10.85 80C11.0833 79.6667 11.3 79.4833 11.5 79.45C11.7 79.4167 11.9667 79.5 12.3 79.7C13.0667 80.2333 13.3 81.1333 13 82.4C12.8667 83.2333 12.7333 83.8167 12.6 84.15C12.5 84.45 12.4167 84.95 12.35 85.65C12.2167 86.8167 11.7167 87.9833 10.85 89.15C10.4833 89.65 10.2 89.95 10 90.05C9.83333 90.1833 9.56667 90.25 9.2 90.25C8.76667 90.25 8.45 90.1333 8.25 89.9C8.05 89.6667 7.91667 89.3 7.85 88.8C7.81667 88.1667 7.73333 87.6833 7.6 87.35C7.53333 87.0167 7.56667 86.4833 7.7 85.75C7.86667 84.9833 8.05 84.5 8.25 84.3C8.45 84.0667 8.55 83.9167 8.55 83.85C8.55 83.75 8.85 83.1833 9.45 82.15C10.0833 81.0833 10.55 80.3667 10.85 80ZM19.35 69.55C19.85 69.05 20.6 69.1333 21.6 69.8C22 70.1 22.3833 70.5833 22.75 71.25C23.1167 71.9167 23.2833 72.45 23.25 72.85C23.25 73.15 23.4167 73.3 23.75 73.3C24.0833 73.3333 25.05 73.2333 26.65 73C28.0833 72.8 29.9167 72.6333 32.15 72.5C34.3833 72.3667 36.0667 72.2333 37.2 72.1L38.9 71.85L40.35 72.65C41.25 73.15 41.85 73.65 42.15 74.15C42.45 74.6167 42.55 75.2667 42.45 76.1C42.2833 77.2333 41.8 77.8667 41 78C40.2 78.1 39.1167 77.6667 37.75 76.7C37.45 76.4667 36.9833 76.3333 36.35 76.3C35.75 76.2667 33.95 76.25 30.95 76.25C26.7833 76.25 24.45 76.3 23.95 76.4C23.6167 76.5 23.4 76.6 23.3 76.7C23.2333 76.8 23.15 77 23.05 77.3C22.9833 77.7333 22.95 78.1167 22.95 78.45C22.95 78.75 23.0167 80.5833 23.15 83.95C23.1833 86.15 23.1833 87.5667 23.15 88.2C23.15 88.8333 23.0667 89.2333 22.9 89.4C22.7 89.7333 22.6 90.05 22.6 90.35C22.6 90.65 22.4833 90.8667 22.25 91C22.05 91.1667 21.95 91.35 21.95 91.55C21.95 91.7833 21.75 92.15 21.35 92.65C20.9833 93.1833 20.5833 93.6667 20.15 94.1C19.3167 94.9 18.7167 95.25 18.35 95.15C18.0167 95.05 17.3 94.4 16.2 93.2L14.7 91.5C14.2667 91.0333 14.05 90.7167 14.05 90.55C14.05 90.3833 13.8833 90.1833 13.55 89.95C13.0833 89.5833 13.3 89.3333 14.2 89.2C14.3667 89.1667 14.5 89.15 14.6 89.15C15.6 88.9833 16.2667 88.8167 16.6 88.65C16.9667 88.45 17.25 88.1333 17.45 87.7C17.7833 86.9667 18 86.15 18.1 85.25C18.2333 84.3167 18.3 82.9167 18.3 81.05L18.2 77.45L17.5 77.4C16.7333 77.3333 15.4667 77.6 13.7 78.2C11.9333 78.7667 10.5833 79.3833 9.65 80.05C9.05 80.45 8.68333 80.65 8.55 80.65C8.45 80.65 8.06667 80.9 7.4 81.4C6.73333 81.8667 6.13333 82.1 5.6 82.1C5.13333 82.1 4.48333 81.9167 3.65 81.55C2.85 81.1833 2.45 80.9 2.45 80.7C2.41667 80.5333 2.25 80.3667 1.95 80.2C1.71667 80.1 1.58333 80.0167 1.55 79.95C1.51667 79.85 1.53333 79.6333 1.6 79.3C1.76667 78.6 2.1 78.25 2.6 78.25C2.8 78.2167 3.4 78.0167 4.4 77.65C5.43333 77.25 6.6 76.9 7.9 76.6C9.2 76.3 10.35 75.9833 11.35 75.65C13.0167 75.15 14.9 74.7167 17 74.35L18.3 74.05V72.85C18.3 72.0833 18.3667 71.5667 18.5 71.3C18.6667 71 18.7667 70.7167 18.8 70.45C18.8667 70.15 19.05 69.85 19.35 69.55ZM19.6 49.6C21.4 49.4 23.3 49.4833 25.3 49.85C27.3333 50.1833 29.0167 50.7333 30.35 51.5C30.8167 51.7667 31.2167 51.9333 31.55 52C31.8833 52.0667 32.3 52.35 32.8 52.85C33.3333 53.3167 33.6333 53.9 33.7 54.6C33.8 55.2667 33.7333 55.7667 33.5 56.1C33.3 56.4 33.2 56.7333 33.2 57.1C33.2 57.5 33.0167 58.4 32.65 59.8C32.3167 61.1667 31.9667 62.2833 31.6 63.15C31.1 64.6167 30.7 65.6667 30.4 66.3C30.2333 66.7 30.1 67 30 67.2C29.9333 67.4 29.8333 67.6 29.7 67.8C29.6 68 29.4 68.4167 29.1 69.05C28.6667 69.85 28.2333 70.35 27.8 70.55C27.3667 70.7167 26.7667 70.6333 26 70.3C25.4667 70.1 25.2 69.8833 25.2 69.65C25.2 69.3833 25.0333 69.1167 24.7 68.85C24.4 68.5833 24.25 68.4167 24.25 68.35C24.25 68.15 24.0833 67.9833 23.75 67.85C23.4167 67.6833 23.0667 67.6 22.7 67.6C22.1667 67.6 21.8667 67.75 21.8 68.05C21.7333 68.3167 21.5333 68.4833 21.2 68.55C20.9 68.6167 20.5667 68.5667 20.2 68.4C19.8 68.1667 19.35 68.1167 18.85 68.25C18.35 68.3167 17.7 68.4833 16.9 68.75C16.1333 68.9833 15.7167 69.15 15.65 69.25C15.4167 69.5167 15.05 69.7 14.55 69.8C14.05 69.9 13.5667 69.8833 13.1 69.75C12.7 69.65 12.4667 69.25 12.4 68.55C12.3333 67.85 12.4833 67.4 12.85 67.2C12.9833 67.0667 12.95 66.7833 12.75 66.35C12.55 65.9167 12.35 65.4333 12.15 64.9C11.9833 64.3333 11.8333 63.9667 11.7 63.8C11.5667 63.6333 11.55 63.55 11.65 63.55C11.7167 63.55 11.6667 63.1167 11.5 62.25C11.3333 61.3833 11.1333 60.4667 10.9 59.5C10.7 58.5333 10.5167 57.9 10.35 57.6C10.2167 57.2 10.0667 56.5167 9.9 55.55C9.76667 54.5833 9.71667 53.8833 9.75 53.45C9.78333 53.0833 9.83333 52.85 9.9 52.75C10 52.65 10.2 52.5833 10.5 52.55C10.9 52.5167 11.3833 52.2333 11.95 51.7C12.5167 51.1667 13.35 50.75 14.45 50.45C15.5833 50.15 17.3 49.8667 19.6 49.6ZM24.9 52.5C23.6 52.2333 22.85 52.1333 22.65 52.2C22.4833 52.2667 22.3667 52.6 22.3 53.2C22.0667 54.9667 22.0667 56.1333 22.3 56.7C22.3667 56.9 22.6667 57.05 23.2 57.15C24.1667 57.3167 24.75 57.9 24.95 58.9C25.0167 59.3667 24.9333 59.7 24.7 59.9C24.5 60.1 24.0667 60.2 23.4 60.2H22.45L22.4 62.2L22.35 64.15H23.15C23.65 64.15 24.05 64.1833 24.35 64.25C24.4833 64.2833 24.6167 64.2167 24.75 64.05C24.9167 63.85 25.1667 63.4333 25.5 62.8C26.6 60.5 27.3 57.8667 27.6 54.9C27.6667 54.3 27.6833 53.9167 27.65 53.75C27.6167 53.5833 27.4667 53.4167 27.2 53.25C26.8333 53.0167 26.0667 52.7667 24.9 52.5ZM18.85 52.35L18.1 52.4C17.4333 52.4 16.4667 52.6 15.2 53C14.5333 53.2 14.1167 53.3667 13.95 53.5C13.7833 53.6333 13.6 53.9167 13.4 54.35C13.1333 54.9833 12.9167 55.4333 12.75 55.7C12.6167 55.9333 12.6 56.5833 12.7 57.65C12.8 58.7167 12.9333 59.3333 13.1 59.5C13.2667 59.6 13.4333 59.5 13.6 59.2C14.1 58.2667 15.3833 57.7 17.45 57.5C18.15 57.4333 18.5167 57.3167 18.55 57.15C18.6167 56.9833 18.6833 56.15 18.75 54.65L18.85 52.35ZM18.4 60.95C17.9333 60.5833 17.2167 60.6 16.25 61C15.7833 61.2 15.2167 61.2667 14.55 61.2L13.55 61.1L13.7 61.95C13.8333 62.75 14.0833 63.6333 14.45 64.6C14.85 65.5667 15.1333 66 15.3 65.9C15.4667 65.8667 16.0833 65.6833 17.15 65.35C17.75 65.1833 18.15 65.0333 18.35 64.9C18.55 64.7667 18.6333 64.65 18.6 64.55C18.5333 64.35 18.4833 64.2167 18.45 64.15C18.45 64.0833 18.5 63.5667 18.6 62.6C18.6333 62 18.6333 61.6167 18.6 61.45C18.6 61.25 18.5333 61.0833 18.4 60.95Z" fill="#FEFFBE"/>
</svg>
