<svg width="273" height="170" viewBox="0 0 273 170" fill="none" xmlns="http://www.w3.org/2000/svg">
<g filter="url(#filter0_b_411_598)">
<mask id="path-1-inside-1_411_598" fill="white">
<path fill-rule="evenodd" clip-rule="evenodd" d="M272.996 105.843C262.631 104.572 254.603 95.7251 254.603 85C254.603 74.2749 262.631 65.4277 272.996 64.1567C271.701 59.0187 269.938 54.0667 267.755 49.3486C265.284 51.0225 262.304 52 259.096 52C250.549 52 243.62 45.0604 243.62 36.5C243.62 31.4147 246.065 26.9014 249.842 24.075C234.531 9.17618 213.622 0 190.57 0H85C38.0558 0 0 38.0558 0 85C0 131.944 38.0558 170 85 170H190.57C213.622 170 234.531 160.824 249.842 145.925C246.065 143.099 243.62 138.585 243.62 133.5C243.62 124.94 250.549 118 259.096 118C262.304 118 265.284 118.978 267.755 120.651C269.938 115.933 271.701 110.981 272.996 105.843Z"/>
</mask>
<path fill-rule="evenodd" clip-rule="evenodd" d="M272.996 105.843C262.631 104.572 254.603 95.7251 254.603 85C254.603 74.2749 262.631 65.4277 272.996 64.1567C271.701 59.0187 269.938 54.0667 267.755 49.3486C265.284 51.0225 262.304 52 259.096 52C250.549 52 243.62 45.0604 243.62 36.5C243.62 31.4147 246.065 26.9014 249.842 24.075C234.531 9.17618 213.622 0 190.57 0H85C38.0558 0 0 38.0558 0 85C0 131.944 38.0558 170 85 170H190.57C213.622 170 234.531 160.824 249.842 145.925C246.065 143.099 243.62 138.585 243.62 133.5C243.62 124.94 250.549 118 259.096 118C262.304 118 265.284 118.978 267.755 120.651C269.938 115.933 271.701 110.981 272.996 105.843Z" fill="white"/>
<path d="M272.996 105.843L274.935 106.332L275.49 104.134L273.24 103.858L272.996 105.843ZM272.996 64.1567L273.24 66.1418L275.49 65.8659L274.935 63.6678L272.996 64.1567ZM267.755 49.3486L269.57 48.5088L268.582 46.3729L266.633 47.6927L267.755 49.3486ZM249.842 24.075L251.041 25.6763L252.915 24.274L251.237 22.6416L249.842 24.075ZM249.842 145.925L251.237 147.358L252.915 145.726L251.041 144.324L249.842 145.925ZM267.755 120.651L266.633 122.307L268.582 123.627L269.57 121.491L267.755 120.651ZM252.603 85C252.603 96.7454 261.394 106.436 272.753 107.828L273.24 103.858C263.867 102.709 256.603 94.7047 256.603 85H252.603ZM272.753 62.1716C261.394 63.5643 252.603 73.2546 252.603 85H256.603C256.603 75.2953 263.867 67.2911 273.24 66.1418L272.753 62.1716ZM274.935 63.6678C273.609 58.4079 271.805 53.3385 269.57 48.5088L265.94 50.1884C268.071 54.7948 269.792 59.6294 271.057 64.6456L274.935 63.6678ZM259.096 54C262.716 54 266.085 52.8954 268.877 51.0045L266.633 47.6927C264.483 49.1495 261.891 50 259.096 50V54ZM241.62 36.5C241.62 46.162 249.441 54 259.096 54V50C251.656 50 245.62 43.9588 245.62 36.5H241.62ZM248.644 22.4737C244.384 25.6619 241.62 30.7585 241.62 36.5H245.62C245.62 32.0709 247.747 28.1409 251.041 25.6763L248.644 22.4737ZM251.237 22.6416C235.567 7.39415 214.164 -2 190.57 -2V2C213.08 2 233.494 10.9582 248.448 25.5085L251.237 22.6416ZM190.57 -2H85V2H190.57V-2ZM85 -2C36.9512 -2 -2 36.9512 -2 85H2C2 39.1604 39.1604 2 85 2V-2ZM-2 85C-2 133.049 36.9512 172 85 172V168C39.1604 168 2 130.84 2 85H-2ZM85 172H190.57V168H85V172ZM190.57 172C214.164 172 235.567 162.606 251.237 147.358L248.448 144.492C233.494 159.042 213.08 168 190.57 168V172ZM241.62 133.5C241.62 139.242 244.384 144.338 248.644 147.526L251.041 144.324C247.747 141.859 245.62 137.929 245.62 133.5H241.62ZM259.096 116C249.441 116 241.62 123.838 241.62 133.5H245.62C245.62 126.041 251.656 120 259.096 120V116ZM268.877 118.995C266.085 117.105 262.716 116 259.096 116V120C261.891 120 264.483 120.85 266.633 122.307L268.877 118.995ZM269.57 121.491C271.805 116.661 273.609 111.592 274.935 106.332L271.057 105.354C269.792 110.371 268.071 115.205 265.94 119.812L269.57 121.491Z" fill="url(#paint0_linear_411_598)" mask="url(#path-1-inside-1_411_598)"/>
<path d="M272.996 105.843L274.935 106.332L275.49 104.134L273.24 103.858L272.996 105.843ZM272.996 64.1567L273.24 66.1418L275.49 65.8659L274.935 63.6678L272.996 64.1567ZM267.755 49.3486L269.57 48.5088L268.582 46.3729L266.633 47.6927L267.755 49.3486ZM249.842 24.075L251.041 25.6763L252.915 24.274L251.237 22.6416L249.842 24.075ZM249.842 145.925L251.237 147.358L252.915 145.726L251.041 144.324L249.842 145.925ZM267.755 120.651L266.633 122.307L268.582 123.627L269.57 121.491L267.755 120.651ZM252.603 85C252.603 96.7454 261.394 106.436 272.753 107.828L273.24 103.858C263.867 102.709 256.603 94.7047 256.603 85H252.603ZM272.753 62.1716C261.394 63.5643 252.603 73.2546 252.603 85H256.603C256.603 75.2953 263.867 67.2911 273.24 66.1418L272.753 62.1716ZM274.935 63.6678C273.609 58.4079 271.805 53.3385 269.57 48.5088L265.94 50.1884C268.071 54.7948 269.792 59.6294 271.057 64.6456L274.935 63.6678ZM259.096 54C262.716 54 266.085 52.8954 268.877 51.0045L266.633 47.6927C264.483 49.1495 261.891 50 259.096 50V54ZM241.62 36.5C241.62 46.162 249.441 54 259.096 54V50C251.656 50 245.62 43.9588 245.62 36.5H241.62ZM248.644 22.4737C244.384 25.6619 241.62 30.7585 241.62 36.5H245.62C245.62 32.0709 247.747 28.1409 251.041 25.6763L248.644 22.4737ZM251.237 22.6416C235.567 7.39415 214.164 -2 190.57 -2V2C213.08 2 233.494 10.9582 248.448 25.5085L251.237 22.6416ZM190.57 -2H85V2H190.57V-2ZM85 -2C36.9512 -2 -2 36.9512 -2 85H2C2 39.1604 39.1604 2 85 2V-2ZM-2 85C-2 133.049 36.9512 172 85 172V168C39.1604 168 2 130.84 2 85H-2ZM85 172H190.57V168H85V172ZM190.57 172C214.164 172 235.567 162.606 251.237 147.358L248.448 144.492C233.494 159.042 213.08 168 190.57 168V172ZM241.62 133.5C241.62 139.242 244.384 144.338 248.644 147.526L251.041 144.324C247.747 141.859 245.62 137.929 245.62 133.5H241.62ZM259.096 116C249.441 116 241.62 123.838 241.62 133.5H245.62C245.62 126.041 251.656 120 259.096 120V116ZM268.877 118.995C266.085 117.105 262.716 116 259.096 116V120C261.891 120 264.483 120.85 266.633 122.307L268.877 118.995ZM269.57 121.491C271.805 116.661 273.609 111.592 274.935 106.332L271.057 105.354C269.792 110.371 268.071 115.205 265.94 119.812L269.57 121.491Z" fill="white" fill-opacity="0.2" mask="url(#path-1-inside-1_411_598)"/>
</g>
<defs>
<filter id="filter0_b_411_598" x="-40" y="-40" width="352.996" height="250" filterUnits="userSpaceOnUse" color-interpolation-filters="sRGB">
<feFlood flood-opacity="0" result="BackgroundImageFix"/>
<feGaussianBlur in="BackgroundImageFix" stdDeviation="20"/>
<feComposite in2="SourceAlpha" operator="in" result="effect1_backgroundBlur_411_598"/>
<feBlend mode="normal" in="SourceGraphic" in2="effect1_backgroundBlur_411_598" result="shape"/>
</filter>
<linearGradient id="paint0_linear_411_598" x1="137.828" y1="-74.4707" x2="137.828" y2="281.036" gradientUnits="userSpaceOnUse">
<stop stop-color="white" stop-opacity="0"/>
<stop offset="0.0001" stop-color="white" stop-opacity="0"/>
<stop offset="1" stop-color="white" stop-opacity="0.58"/>
</linearGradient>
</defs>
</svg>
