<svg width="107" height="192" viewBox="0 0 107 192" fill="none" xmlns="http://www.w3.org/2000/svg">
<path d="M26.9747 55.4777C28.7739 46.0318 38.2179 34.2664 44.4578 27.6988C46.078 25.9935 48.1482 24.779 50.4063 24.1202C88.3 13.0641 89.1054 26.7799 95.999 38.0603C103.095 49.6719 103.095 46.4464 99.2244 56.7678C95.3539 67.0892 86.3227 70.9597 85.0325 80.6361C83.7424 90.3124 102.45 110.955 99.2244 127.082C95.999 143.21 97.9343 176.109 77.2915 188.366C56.6487 200.622 28.2648 178.689 13.4278 169.658C-1.40916 160.627 -2.05425 102.569 2.46136 86.4418C6.97697 70.3147 24.3943 69.0245 26.9747 55.4777Z" fill="#ECE2D7"/>
<path fill-rule="evenodd" clip-rule="evenodd" d="M55.7526 4.42455C55.3524 3.77226 54.3551 2.51763 53.8783 2.06694C53.6933 1.8921 53.4926 1.73478 53.2786 1.597L51.8539 0.679601L50.5811 5.23677L49.533 9.84817C49.5159 9.94673 49.498 10.0473 49.4794 10.1491C49.0545 12.4852 48.9881 13.0139 48.9261 14.5591C48.8337 16.8586 49.1025 18.5815 49.8049 20.1917C50.1433 20.9676 50.3217 21.2725 50.6354 21.6116C51.8313 22.9045 53.4632 23.3517 55.9056 23.056C57.0774 22.914 57.8663 22.7202 60.3768 21.9569C63.1835 21.1036 64.3794 20.8095 65.8369 20.6142C68.8029 20.2169 72.5194 20.4803 76.2495 21.3522C79.4155 22.0921 83.5114 23.723 86.364 25.3794C87.7805 26.2019 88.2352 26.5169 89.054 27.2428C90.5186 28.5415 91.0953 29.7602 91.5288 32.4731C92.1692 36.4807 93.3284 37.9908 98.6329 41.7283C101.2 43.5374 101.644 43.9817 101.341 44.4417C101.206 44.6473 101.067 44.7085 99.8645 45.0931C97.7547 45.768 97.3848 46.0987 97.7714 46.965C98.0338 47.5528 98.64 48.1424 100.16 49.2879C102.868 51.3291 103.681 52.1657 103.755 52.9869C103.879 54.3709 101.295 58.4355 98.2578 61.6324C95.9351 64.0774 93.6927 65.618 91.349 66.3791C89.1693 67.0868 87.5475 67.321 83.8313 67.4644C83.7794 67.4664 83.7365 67.4751 83.7086 67.4585C83.5964 67.3914 83.7308 66.9118 84.5201 63.9153C85.0357 61.9582 85.1099 61.5098 84.9036 61.599C84.6632 61.7028 83.9359 63.2553 83.1383 65.367L82.3364 67.4898L80.661 67.3785C78.8215 67.2564 76.8291 67.0516 76.7169 66.9733C76.6323 66.914 77.3652 65.747 79.314 62.8375C80.9021 60.4665 81.2321 59.9307 81.2286 59.7291C81.2269 59.6241 81.1754 59.6288 81.0131 59.749C80.6518 60.0169 77.8903 63.3493 76.8418 64.7831C76.2955 65.5299 75.7439 66.2837 75.6161 66.4579L75.3835 66.7747L74.0889 66.5479C72.9237 66.3437 72.5127 66.3239 72.5781 66.4753C72.6264 66.587 73.2538 66.9229 74.0194 67.2469C74.4629 67.4345 74.8146 67.6066 74.8011 67.6294C74.7877 67.6521 74.6917 67.7924 74.5878 67.9413C73.7159 69.1903 71.6139 72.8828 70.503 75.1169C68.7156 78.7114 66.2456 84.9524 65.1981 88.521C65.1421 88.7121 65.1718 88.7111 65.6461 88.5061L66.1543 88.2865L66.8677 86.6376C70.8308 77.479 72.9815 73.0338 75.4714 68.8546L75.9913 67.9822L76.8142 68.1878C78.0343 68.4925 79.5882 68.7366 80.8001 68.8137C81.3907 68.8513 81.8863 68.9099 81.9011 68.9438C81.9161 68.9776 81.7989 69.5022 81.6408 70.1094C81.0156 72.5106 80.5315 75.2237 80.1848 78.2704C79.9694 80.1617 79.7895 82.2202 79.8311 82.3163C79.8454 82.3494 80.0212 82.2915 80.2219 82.1878L80.5866 81.999L81.2163 78.5102C81.5626 76.5913 81.9758 74.3908 82.1345 73.6201C82.4327 72.1726 83.1969 68.8721 83.2382 68.8542C83.251 68.8487 83.5704 68.8301 83.9481 68.813C86.1706 68.712 89.0068 68.2121 91.7502 67.4378C93.0707 67.065 95.8909 65.8149 96.7451 65.2237C98.6467 63.9077 99.6843 62.63 100.911 60.094C101.499 58.8785 101.723 58.551 102.492 57.7829C104.026 56.2515 104.888 54.7288 105.521 52.4344C106.332 49.496 106.409 47.3946 105.753 46.1095C105.371 45.3597 104.904 44.929 103.26 43.8077C101.146 42.3668 98.9213 40.3719 97.3375 38.498C96.0724 37.0011 95.3609 35.9026 94.4231 33.998C91.935 28.9444 91.6955 28.5357 90.3197 26.9951C88.5313 24.9925 85.834 23.3391 82.6781 22.3108C80.2138 21.5079 77.8989 20.9782 72.1239 19.8957C68.7169 19.257 67.2948 18.9162 66.1689 18.4685C64.5659 17.8313 63.6675 17.0564 62.2617 15.0983C62.1325 14.9184 62.1499 14.8265 62.391 14.4151C63.2994 12.865 68.1781 6.82223 70.5745 4.27914C71.6178 3.172 72.1498 2.85571 72.5011 3.13384C72.8198 3.3862 73.3739 4.91698 73.6679 6.357C74.2408 9.1644 74.272 11.6715 73.7819 15.5176C73.5899 17.0236 73.6028 17.4109 73.8226 16.7457C74.4276 14.9141 74.8608 10.1085 74.8459 5.39271C74.8336 1.49882 74.5343 0.0595928 73.725 0.0027526C73.3184 -0.0257797 72.9065 0.163739 72.1066 0.747659C70.2226 2.12291 67.9239 4.3398 63.3346 9.20768C61.5749 11.0741 60.4738 12.1791 60.4145 12.1377C60.3622 12.1012 59.9188 11.3834 59.4292 10.5426C57.7657 7.68637 56.6697 5.84032 56.4022 5.44402C56.2554 5.22661 55.9631 4.76788 55.7526 4.42455ZM81.9693 33.3616C81.5697 33.475 81.1198 33.6015 80.9695 33.6429C80.3108 33.8244 76.3857 35.6569 75.5832 36.1575C74.4229 36.8814 73.4099 37.5779 73.3593 37.6865C73.3361 37.7363 73.5898 37.7614 73.9231 37.7422C74.757 37.694 75.1851 37.8597 76.0769 38.576C77.019 39.3326 78.1206 39.8285 79.3449 40.0472C81.4708 40.4267 83.3131 40.1119 84.0779 39.2383C84.4561 38.8064 84.7142 38.0172 84.9147 36.6802C85.0182 35.9892 85.2006 35.0593 85.3201 34.6139C85.6625 33.3365 85.6732 33.2147 85.4592 33.0208C85.0978 32.6933 83.9207 32.8083 81.9693 33.3616ZM77.9196 59.1954C79.2795 57.7996 79.7877 57.2107 79.7358 57.0905C79.69 56.9846 79.6631 56.9968 79.0899 57.3806C78.3333 57.8873 76.4418 59.4836 75.4347 60.4653C72.0316 63.7824 69.5166 67.2831 66.7422 72.5639C64.7859 76.2876 63.3791 79.8773 64.5886 78.0591C64.792 77.7534 65.8408 76.0424 66.9194 74.2569C71.9553 65.9205 73.7169 63.5084 77.9196 59.1954Z" fill="#393531"/>
</svg>
