<svg width="31" height="37" viewBox="0 0 31 37" fill="none" xmlns="http://www.w3.org/2000/svg">
<path d="M26.493 36.9993H4.45851C2.06104 36.9993 0.111328 35.3554 0.111328 33.334C0.111328 33.315 0.111955 33.2965 0.11321 33.2775L1.36557 13.6673C1.38563 11.6607 3.32719 10.0332 5.71275 10.0332H25.2387C27.6243 10.0332 29.5652 11.6607 29.5865 13.6673L30.8389 33.2775C30.8401 33.2965 30.8408 33.315 30.8408 33.334C30.8401 35.3554 28.8898 36.9993 26.493 36.9993ZM2.6198 33.3589C2.63485 34.2022 3.4545 34.8843 4.45851 34.8843H26.493C27.4976 34.8843 28.3154 34.2022 28.3323 33.3589L27.0799 13.7551C27.0787 13.736 27.0781 13.7175 27.0781 13.6985C27.0781 12.844 26.2534 12.1482 25.2387 12.1482H5.71275C4.69933 12.1482 3.87404 12.8435 3.87404 13.6985C3.87404 13.7175 3.87341 13.736 3.87216 13.7551L2.6198 33.3589Z" fill="white"/>
<path d="M21.0442 11.9153C20.3518 11.9153 19.7899 11.3534 19.7899 10.661V3.811C19.7899 2.94683 18.9671 2.50847 17.817 2.50847H13.3413C12.8853 2.50847 11.6374 2.60192 11.6374 3.811V10.661C11.6374 11.3534 11.0755 11.9153 10.3831 11.9153C9.6908 11.9153 9.12891 11.3534 9.12891 10.661V3.811C9.12891 1.56717 10.7205 0 13.3419 0H17.817C20.3556 0 22.2984 1.53142 22.2984 3.811V10.661C22.2984 11.3534 21.7365 11.9153 21.0442 11.9153Z" fill="white"/>
</svg>
