<svg width="50" height="37" viewBox="0 0 50 37" fill="none" xmlns="http://www.w3.org/2000/svg">
<path opacity="0.2" d="M24.9074 0C30.0148 0 35.4647 1.91167 40.3671 6.00387C43.9895 9.028 47.1244 12.9155 49.7744 17.6515C50.0494 18.1399 50.0744 18.7343 49.8419 19.2425C47.3719 24.6691 44.1045 28.8181 40.0396 31.6547C34.8497 35.2733 29.3723 37 24.9974 37C20.065 37 15.6626 35.705 10.6477 31.8348C6.70527 28.7959 3.23784 24.679 0.237901 19.5015C0.0914015 19.2481 0.0100194 18.9632 0.000867701 18.6717C-0.00828398 18.3802 0.0550734 18.0909 0.185402 17.8291C2.02036 14.1463 4.8128 10.5524 8.55273 7.03247C13.5951 2.28907 19.5825 0 24.9074 0ZM24.9974 8.40147C19.6275 8.40147 15.2726 12.8217 15.2726 18.2755C15.2726 23.7269 19.6275 28.1471 24.9974 28.1471C30.3698 28.1471 34.7222 23.7269 34.7222 18.2755C34.7222 12.8242 30.3698 8.40147 24.9999 8.40147H24.9974ZM24.9974 11.8869C28.4723 11.8869 31.2897 14.7482 31.2897 18.2755C31.2897 21.8029 28.4723 24.6642 24.9974 24.6642C21.5225 24.6642 18.705 21.8029 18.705 18.2755C18.705 14.7482 21.5225 11.8869 24.9974 11.8869Z" fill="#393531"/>
</svg>
