<svg width="360" height="441" viewBox="0 0 360 441" fill="none" xmlns="http://www.w3.org/2000/svg">
<g filter="url(#filter0_b_817_1677)">
<mask id="path-1-inside-1_817_1677" fill="white">
<path fill-rule="evenodd" clip-rule="evenodd" d="M358 178.5V265.5C358 349.761 297.823 420.258 218.51 437.803C218.615 438.461 218.704 439.125 218.776 439.793C299.054 422.114 360 350.793 360 265.5V178.5C360 79.9172 278.583 0 180 0C81.4172 0 0 79.9172 0 178.5V265.5C0 350.793 60.9455 422.114 141.224 439.793C141.296 439.125 141.385 438.461 141.49 437.803C62.1771 420.258 2 349.761 2 265.5V178.5C2 81.0434 82.4999 2 180 2C277.5 2 358 81.0434 358 178.5Z"/>
</mask>
<path fill-rule="evenodd" clip-rule="evenodd" d="M358 178.5V265.5C358 349.761 297.823 420.258 218.51 437.803C218.615 438.461 218.704 439.125 218.776 439.793C299.054 422.114 360 350.793 360 265.5V178.5C360 79.9172 278.583 0 180 0C81.4172 0 0 79.9172 0 178.5V265.5C0 350.793 60.9455 422.114 141.224 439.793C141.296 439.125 141.385 438.461 141.49 437.803C62.1771 420.258 2 349.761 2 265.5V178.5C2 81.0434 82.4999 2 180 2C277.5 2 358 81.0434 358 178.5Z" fill="url(#paint0_linear_817_1677)"/>
<path d="M218.51 437.803L218.078 435.851L216.238 436.258L216.535 438.119L218.51 437.803ZM218.776 439.793L216.787 440.006L217.025 442.226L219.206 441.746L218.776 439.793ZM141.224 439.793L140.794 441.746L142.975 442.226L143.213 440.006L141.224 439.793ZM141.49 437.803L143.465 438.119L143.762 436.258L141.922 435.851L141.49 437.803ZM360 265.5V178.5H356V265.5H360ZM218.942 439.756C299.132 422.017 360 350.739 360 265.5H356C356 348.784 296.514 418.499 218.078 435.851L218.942 439.756ZM216.535 438.119C216.635 438.743 216.719 439.372 216.787 440.006L220.764 439.58C220.689 438.877 220.596 438.18 220.485 437.488L216.535 438.119ZM219.206 441.746C300.362 423.874 362 351.772 362 265.5H358C358 349.815 297.747 420.354 218.346 437.84L219.206 441.746ZM362 265.5V178.5H358V265.5H362ZM362 178.5C362 78.7909 279.666 -2 180 -2V2C277.5 2 358 81.0435 358 178.5H362ZM180 -2C80.3344 -2 -2 78.7909 -2 178.5H2C2 81.0434 82.4999 2 180 2V-2ZM-2 178.5V265.5H2V178.5H-2ZM-2 265.5C-2 351.772 59.6378 423.874 140.794 441.746L141.654 437.84C62.2533 420.354 2 349.815 2 265.5H-2ZM143.213 440.006C143.281 439.372 143.365 438.743 143.465 438.119L139.515 437.488C139.404 438.18 139.311 438.877 139.236 439.58L143.213 440.006ZM0 265.5C0 350.739 60.8684 422.017 141.058 439.756L141.922 435.851C63.4858 418.499 4 348.784 4 265.5H0ZM0 178.5V265.5H4V178.5H0ZM180 0C81.4171 0 0 79.9172 0 178.5H4C4 82.1696 83.5827 4 180 4V0ZM360 178.5C360 79.9173 278.583 0 180 0V4C276.417 4 356 82.1696 356 178.5H360Z" fill="url(#paint1_linear_817_1677)" mask="url(#path-1-inside-1_817_1677)"/>
</g>
<g filter="url(#filter1_b_817_1677)">
<mask id="path-3-inside-2_817_1677" fill="white">
<path fill-rule="evenodd" clip-rule="evenodd" d="M180 0C81.4172 0 0 79.9172 0 178.5V265.5C0 351.488 61.9432 423.276 143.191 440.215C145.087 421.558 160.843 407 180 407C199.157 407 214.913 421.558 216.809 440.215C298.057 423.276 360 351.488 360 265.5V178.5C360 79.9172 278.583 0 180 0Z"/>
</mask>
<path fill-rule="evenodd" clip-rule="evenodd" d="M180 0C81.4172 0 0 79.9172 0 178.5V265.5C0 351.488 61.9432 423.276 143.191 440.215C145.087 421.558 160.843 407 180 407C199.157 407 214.913 421.558 216.809 440.215C298.057 423.276 360 351.488 360 265.5V178.5C360 79.9172 278.583 0 180 0Z" fill="url(#paint2_linear_817_1677)"/>
<path d="M143.191 440.215L142.783 442.173L144.957 442.626L145.181 440.417L143.191 440.215ZM216.809 440.215L214.819 440.417L215.043 442.626L217.217 442.173L216.809 440.215ZM2 178.5C2 81.0434 82.4999 2 180 2V-2C80.3344 -2 -2 78.7909 -2 178.5H2ZM2 265.5V178.5H-2V265.5H2ZM143.599 438.257C63.2399 421.503 2 350.502 2 265.5H-2C-2 352.475 60.6464 425.048 142.783 442.173L143.599 438.257ZM145.181 440.417C146.974 422.771 161.88 409 180 409V405C159.807 405 143.2 420.346 141.202 440.012L145.181 440.417ZM180 409C198.12 409 213.026 422.771 214.819 440.417L218.798 440.012C216.8 420.346 200.193 405 180 405V409ZM358 265.5C358 350.502 296.76 421.503 216.401 438.257L217.217 442.173C299.354 425.048 362 352.475 362 265.5H358ZM358 178.5V265.5H362V178.5H358ZM180 2C277.5 2 358 81.0434 358 178.5H362C362 78.7909 279.666 -2 180 -2V2Z" fill="url(#paint3_linear_817_1677)" mask="url(#path-3-inside-2_817_1677)"/>
</g>
<defs>
<filter id="filter0_b_817_1677" x="-40" y="-40" width="440" height="519.793" filterUnits="userSpaceOnUse" color-interpolation-filters="sRGB">
<feFlood flood-opacity="0" result="BackgroundImageFix"/>
<feGaussianBlur in="BackgroundImageFix" stdDeviation="20"/>
<feComposite in2="SourceAlpha" operator="in" result="effect1_backgroundBlur_817_1677"/>
<feBlend mode="normal" in="SourceGraphic" in2="effect1_backgroundBlur_817_1677" result="shape"/>
</filter>
<filter id="filter1_b_817_1677" x="-40" y="-40" width="440" height="520.215" filterUnits="userSpaceOnUse" color-interpolation-filters="sRGB">
<feFlood flood-opacity="0" result="BackgroundImageFix"/>
<feGaussianBlur in="BackgroundImageFix" stdDeviation="20"/>
<feComposite in2="SourceAlpha" operator="in" result="effect1_backgroundBlur_817_1677"/>
<feBlend mode="normal" in="SourceGraphic" in2="effect1_backgroundBlur_817_1677" result="shape"/>
</filter>
<linearGradient id="paint0_linear_817_1677" x1="180" y1="20.5" x2="180" y2="444" gradientUnits="userSpaceOnUse">
<stop stop-color="white"/>
<stop offset="1" stop-color="white"/>
</linearGradient>
<linearGradient id="paint1_linear_817_1677" x1="180" y1="-194.5" x2="180" y2="734" gradientUnits="userSpaceOnUse">
<stop stop-color="white" stop-opacity="0"/>
<stop offset="0.0001" stop-color="white" stop-opacity="0"/>
<stop offset="1" stop-color="white" stop-opacity="0.58"/>
</linearGradient>
<linearGradient id="paint2_linear_817_1677" x1="180" y1="20.4999" x2="180" y2="443.997" gradientUnits="userSpaceOnUse">
<stop stop-color="white"/>
<stop offset="1" stop-color="white" stop-opacity="0"/>
</linearGradient>
<linearGradient id="paint3_linear_817_1677" x1="180" y1="-194.499" x2="180" y2="733.996" gradientUnits="userSpaceOnUse">
<stop stop-color="white" stop-opacity="0"/>
<stop offset="0.0001" stop-color="white" stop-opacity="0"/>
<stop offset="1" stop-color="white" stop-opacity="0.58"/>
</linearGradient>
</defs>
</svg>
