<svg width="107" height="192" viewBox="0 0 107 192" fill="none" xmlns="http://www.w3.org/2000/svg">
<path d="M26.9747 55.4777C28.7739 46.0318 38.2179 34.2664 44.4578 27.6988C46.078 25.9935 48.1482 24.779 50.4063 24.1202C88.3 13.0641 89.1054 26.7799 95.999 38.0603C103.095 49.6719 103.095 46.4464 99.2244 56.7678C95.3539 67.0892 86.3227 70.9597 85.0325 80.6361C83.7424 90.3124 102.45 110.955 99.2244 127.082C95.999 143.21 97.9343 176.109 77.2915 188.366C56.6487 200.622 28.2648 178.689 13.4278 169.658C-1.40916 160.627 -2.05425 102.569 2.46136 86.4418C6.97697 70.3147 24.3943 69.0245 26.9747 55.4777Z" fill="white"/>
<path fill-rule="evenodd" clip-rule="evenodd" d="M55.7526 4.42406C55.3524 3.77177 54.3551 2.51714 53.8783 2.06645C53.6933 1.89161 53.4926 1.73429 53.2786 1.59651L51.8539 0.679113L50.583 5.22934L49.5318 9.85451C49.515 9.95088 49.4975 10.0491 49.4794 10.1486C49.0545 12.4847 48.9881 13.0135 48.9261 14.5586C48.8337 16.8581 49.1025 18.581 49.8049 20.1912C50.1433 20.9671 50.3217 21.2721 50.6354 21.6111C51.8313 22.904 53.4632 23.3513 55.9056 23.0555C57.0774 22.9135 57.8663 22.7197 60.3768 21.9565C63.1835 21.1031 64.3794 20.809 65.8369 20.6138C68.8029 20.2164 72.5194 20.4798 76.2495 21.3517C79.4155 22.0916 83.5114 23.7225 86.364 25.3789C87.7805 26.2014 88.2352 26.5164 89.054 27.2423C90.5186 28.541 91.0953 29.7597 91.5288 32.4726C92.1692 36.4802 93.3284 37.9903 98.6329 41.7279C101.2 43.5369 101.644 43.9813 101.341 44.4412C101.206 44.6468 101.067 44.708 99.8645 45.0926C97.7547 45.7675 97.3848 46.0982 97.7714 46.9645C98.0338 47.5523 98.64 48.1419 100.16 49.2874C102.868 51.3286 103.681 52.1652 103.755 52.9864C103.879 54.3704 101.295 58.435 98.2578 61.6319C95.9351 64.0769 93.6927 65.6175 91.349 66.3786C89.1693 67.0863 87.5475 67.3205 83.8313 67.4639C83.7794 67.466 83.7365 67.4746 83.7086 67.458C83.5964 67.3909 83.7308 66.9113 84.5201 63.9148C85.0357 61.9577 85.1099 61.5093 84.9036 61.5985C84.6632 61.7023 83.9359 63.2548 83.1383 65.3665L82.3364 67.4893L80.661 67.378C78.8215 67.2559 76.8291 67.0511 76.7169 66.9728C76.6323 66.9135 77.3652 65.7465 79.314 62.837C80.9021 60.466 81.2321 59.9302 81.2286 59.7286C81.2269 59.6236 81.1754 59.6283 81.0131 59.7485C80.6518 60.0164 77.8903 63.3489 76.8418 64.7826C76.2955 65.5294 75.7439 66.2832 75.6161 66.4574L75.3835 66.7742L74.0889 66.5474C72.9237 66.3432 72.5127 66.3234 72.5781 66.4748C72.6264 66.5865 73.2538 66.9224 74.0194 67.2464C74.4629 67.434 74.8146 67.6061 74.8011 67.6289C74.7877 67.6516 74.6917 67.792 74.5878 67.9408C73.7159 69.1899 71.6139 72.8824 70.503 75.1164C68.7156 78.7109 66.2456 84.9519 65.1981 88.5205C65.1421 88.7116 65.1718 88.7106 65.6461 88.5056L66.1543 88.286L66.8677 86.6371C70.8308 77.4785 72.9815 73.0333 75.4714 68.8541L75.9913 67.9817L76.8142 68.1873C78.0343 68.4921 79.5882 68.7361 80.8001 68.8132C81.3907 68.8508 81.8863 68.9094 81.9011 68.9433C81.9161 68.9772 81.7989 69.5017 81.6408 70.1089C81.0156 72.5101 80.5315 75.2232 80.1848 78.2699C79.9694 80.1612 79.7895 82.2197 79.8311 82.3158C79.8454 82.3489 80.0212 82.2911 80.2219 82.1873L80.5866 81.9985L81.2163 78.5097C81.5626 76.5908 81.9758 74.3903 82.1345 73.6197C82.4327 72.1722 83.1969 68.8716 83.2382 68.8538C83.251 68.8482 83.5704 68.8296 83.9481 68.8125C86.1706 68.7116 89.0068 68.2116 91.7502 67.4373C93.0707 67.0645 95.8909 65.8145 96.7451 65.2232C98.6467 63.9072 99.6843 62.6295 100.911 60.0936C101.499 58.878 101.723 58.5505 102.492 57.7824C104.026 56.251 104.888 54.7283 105.521 52.4339C106.332 49.4955 106.409 47.3941 105.753 46.1091C105.371 45.3592 104.904 44.9285 103.26 43.8072C101.146 42.3663 98.9213 40.3714 97.3375 38.4975C96.0724 37.0006 95.3609 35.9021 94.4231 33.9975C91.935 28.9439 91.6955 28.5352 90.3197 26.9946C88.5313 24.9921 85.834 23.3386 82.6781 22.3103C80.2138 21.5074 77.8989 20.9777 72.1239 19.8952C68.7169 19.2565 67.2948 18.9157 66.1689 18.468C64.5659 17.8308 63.6675 17.0559 62.2617 15.0978C62.1325 14.918 62.1499 14.826 62.391 14.4146C63.2994 12.8645 68.1781 6.82174 70.5745 4.27865C71.6178 3.17151 72.1498 2.85522 72.5011 3.13335C72.8198 3.38571 73.3739 4.9165 73.6679 6.35651C74.2408 9.16391 74.272 11.671 73.7819 15.5171C73.5899 17.0232 73.6028 17.4104 73.8226 16.7452C74.4276 14.9136 74.8608 10.1081 74.8459 5.39223C74.8336 1.49833 74.5343 0.0591045 73.725 0.00226432C73.3184 -0.026268 72.9065 0.163251 72.1066 0.747171C70.2226 2.12242 67.9239 4.33931 63.3346 9.20719C61.5749 11.0736 60.4738 12.1786 60.4145 12.1372C60.3622 12.1007 59.9188 11.3829 59.4292 10.5421C57.7657 7.68588 56.6697 5.83983 56.4022 5.44353C56.2554 5.22612 55.9631 4.76739 55.7526 4.42406ZM81.9693 33.3612C81.5697 33.4745 81.1198 33.601 80.9695 33.6424C80.3108 33.8239 76.3857 35.6564 75.5832 36.157C74.4229 36.8809 73.4099 37.5774 73.3593 37.686C73.3361 37.7359 73.5898 37.7609 73.9231 37.7417C74.757 37.6936 75.1851 37.8592 76.0769 38.5755C77.019 39.3322 78.1206 39.828 79.3449 40.0467C81.4708 40.4262 83.3131 40.1114 84.0779 39.2378C84.4561 38.8059 84.7142 38.0167 84.9147 36.6797C85.0182 35.9887 85.2006 35.0588 85.3201 34.6135C85.6625 33.336 85.6732 33.2142 85.4592 33.0203C85.0978 32.6929 83.9207 32.8078 81.9693 33.3612ZM77.9196 59.1949C79.2795 57.7991 79.7877 57.2102 79.7358 57.09C79.69 56.9841 79.6631 56.9963 79.0899 57.3801C78.3333 57.8869 76.4418 59.4831 75.4347 60.4648C72.0316 63.7819 69.5166 67.2826 66.7422 72.5634C64.7859 76.2871 63.3791 79.8768 64.5886 78.0586C64.792 77.7529 65.8408 76.0419 66.9194 74.2564C71.9553 65.92 73.7169 63.5079 77.9196 59.1949Z" fill="#393531"/>
</svg>
